# xmcd
#
# Track frame offsets:
#	150
#	16505
#	32764
#	46221
#	62715
#	73887
#	86575
#	99854
#	117393
#	129704
#	147161
#	161141
#	186837
#
# Disc length: 2511
#
# Revision: 1
# Processed by: cddbd v1.5.1PL0 Copyright (c) Steve Scherf et al.
# Submitted via: EasyCDDAExtractor 5.0.5.1
# Normalized: r0:DSETVAR1
#
DISCID=af09cd0d
DTITLE=Various Artist - It takes Two
DYEAR=2004
DGENRE=Blues
TTITLE0=Patti Austin and James Ingram - Baby come to me
TTITLE1=Billy Preston and Syreeta - With you I'm born again
TTITLE2=The Mavericks and Trisha Yearwood - Something stupid
TTITLE3=Jose Carreras and Eva Lind - Indian Love call
TTITLE4=Marvin Gaye and Tammi Terrell - Ain't no Mountain high enough
TTITLE5=Etta James and Harvey Fuqua - Spoonful
TTITLE6=Louis Prima and Kelly Smith - The old black Magic
TTITLE7=Jennifer Warnes and Joe Cocker - Up where we belong
TTITLE8=Nino Tempo and April Stevens - Deep Purple
TTITLE9=Dionne Warwick and Detroit Spinners - Then came you
TTITLE10=Otis Redding and Carla Thomas - It takes Two
TTITLE11=Sonny and Cher - I got you Babe
TTITLE12=Different Interpret - Text
EXTD=
EXTT0=
EXTT1=
EXTT2=
EXTT3=
EXTT4=
EXTT5=
EXTT6=
EXTT7=
EXTT8=
EXTT9=
EXTT10=
EXTT11=
EXTT12=
PLAYORDER=
